<?xml version="1.0" encoding="utf-8"?>
<!-- Generator: Adobe Illustrator 26.1.0, SVG Export Plug-In . SVG Version: 6.00 Build 0)  -->
<svg version="1.1" id="Layer_1" xmlns="http://www.w3.org/2000/svg" xmlns:xlink="http://www.w3.org/1999/xlink" x="0px" y="0px"
	 viewBox="0 0 276 237" style="enable-background:new 0 0 276 237;" xml:space="preserve">
<g id="_x23_000000ff">
	<path d="M107,37.8c7.8-3.5,16.5-6.5,25.2-5.2c11.1,1.2,21.8,7.3,27.8,16.8c3,4.4,4.5,9.6,6.7,14.5c4.3-1,8.8-0.8,13.2-1.4
		c24.3-1.9,48.7-4.1,73.1-2.5c-0.2,1.4-0.9,2.6-2.2,3.2c-8.7,6-17.9,11.4-27.6,15.7c-7,3.1-14,6.3-21.4,8.6c-1,0.3-2,0.7-3,1
		c-1.2,0.4-2.5,0.9-3.7,1.3c-7.8,2.2-15.6,4.5-23.6,6.3c-0.7,7-1.9,13.9-3.4,20.7c-0.4,1.3-0.7,2.7-1,4c-2.6,10.4-8.1,19.7-11.2,30
		c-0.6,3.7-0.5,7.4-0.2,11c1.4,5.8,5.3,10.7,10.5,13.6c-3.6-0.1-7-1.2-10.3-2.4c-6.3-3.7-8.1-11.4-8.5-18.2
		c-0.1-7.3,0.5-14.7,0.9-22c-2.4,1.4-4.9,2.7-7.3,3.9c-1.4,0.5-3,0.7-4.5,0.9l0.1,0.7c-3.2,0.1-6.4-0.4-9.5-1.5
		c-3-1.4-5.9-2.9-8.6-4.8c0.1,1.3,0.2,2.6,0.3,4c1.4,8.1,1.1,16.6,0.2,24.8c-1.4,7.2-7,13-14,15.1c-8.7,3.7-19.1,1.7-27.2,7.1
		c-7.5,4.8-10.7,13.8-12.5,22.1c-3.3-8-4.3-17.1-1.5-25.3c3.9-11.7,12.1-21.5,21.3-29.5c5-4.4,8.7-10.1,10.7-16.5
		c0.8-3.2,1.6-6.3,1.7-9.6c-12.4,4.5-24.6,9.3-37.5,12.3c-12.2,2.8-24.5,5.6-37,5.9c0-2.5,2.4-3.8,4.1-5.4
		c20.1-16.8,41.4-32.1,63.6-46.1c-1-5.5-4.3-10.4-4.7-16c-0.5-2.9-0.5-5.9-0.1-8.8C87.5,53.6,95.9,42.7,107,37.8 M231.3,72.4
		c3.4-1.6,4.5-5.3,6.5-8.1c-0.2-0.4-0.5-1.2-0.7-1.6C235.1,65.9,233,69.1,231.3,72.4 M238.4,69c1.4-2.1,3.4-4.2,3.2-6.9
		C240,64,237.7,66.1,238.4,69 M225.9,74.1c0.7,0,1.4,0.1,2.1,0.1c1.9-3.6,4.7-6.8,5.9-10.7C229.9,65.7,229.1,71,225.9,74.1
		 M218.3,74.9c-0.8,1.6-2.4,3-1.8,5c3.2-4.6,7.1-9.2,8.4-14.7C222.1,68,220.5,71.6,218.3,74.9 M226.7,67.3
		c-1.9,3.4-4.2,6.6-5.7,10.2c4.5-2.8,5.6-8.5,8.9-12.4l-2-0.1C227.6,65.6,227,66.7,226.7,67.3 M216.7,71.3
		c-1.9,3.6-4.4,6.8-5.7,10.7c4.6-4.2,6.8-10.4,10.2-15.5C218.7,66.7,218,69.4,216.7,71.3 M205.9,83.8c5.3-3.8,6.7-10.9,11.1-15.7
		c-0.5-0.1-1.6-0.2-2.1-0.2C212.3,73.4,208.3,78.2,205.9,83.8 M201.2,85.5c3-2,4.2-5.6,6.1-8.4c1.6-2.9,4.2-5.5,4.5-8.9
		C207.5,73.4,204.1,79.4,201.2,85.5 M205.7,71c-3.1,5.2-6.8,10.3-9,16c2.3-1.2,3.4-3.7,4.7-5.9c2.1-3.8,4.6-7.5,6.5-11.4
		C207.4,70,206.3,70.7,205.7,71 M201,72.3c-2.8,5.2-6.1,10.1-9.1,15.2c0.5-0.1,1.5-0.2,2-0.3c2.9-5.3,6.3-10.3,9.2-15.6
		C202.6,71.8,201.6,72.1,201,72.3 M192.7,80.1c-1.6,3.2-4.5,6-4.6,9.7c0.9-1.1,1.8-2.3,2.7-3.5c0.5-0.9,0.9-1.7,1.4-2.6
		c2.1-3.7,4.5-7.2,6.5-10.9C195.4,74,194.4,77.5,192.7,80.1 M191,76.3c-2.3,5.1-6.1,9.3-8,14.6c1-0.7,2.1-1.3,2.7-2.5
		c2.8-4.5,5.5-9.1,8.1-13.7C193,75.1,191.7,75.9,191,76.3 M186.9,77.3c-2.6,4-4.9,8.2-7.5,12.2c0,0.7-0.1,2.1-0.1,2.9
		c3.4-5,6.4-10.3,9.5-15.5C188.3,77,187.4,77.2,186.9,77.3 M181.9,79.2c-2.7,4.7-5.6,9.2-8.2,14c0.6-0.3,1.7-1,2.2-1.4
		c2.9-4.1,5-8.7,7.9-12.9C183.4,79,182.4,79.2,181.9,79.2 M171.6,92.5c2.8-3.7,5-7.9,7.5-11.8l-1.9,0.8
		C174.7,84.8,172,88.3,171.6,92.5 M142,100.5c-10.5,6.7-21.5,12.8-32.8,18c2.5,7,8.4,11.8,14.7,15.3c2.6,1.1,5.3,2.2,8,3.1
		c0.8,0,2.5,0,3.4,0c2.4-0.7,4.9-1.3,7.3-2l0.2-0.9c0.3,0.1,1,0.2,1.4,0.2c4-3.1,8.7-5.6,11.6-10c3.9-5.8,4.5-13,6.4-19.6
		c1.5-5.2,1.4-10.6,1.3-16C155.7,91.8,149,96.4,142,100.5z"/>
	<path d="M124.9,120.8c1.4-2.9,3.8-5.4,6.8-6.7c1.5,0.8,3,1.1,4.5,0c3.8,1.3,7.5,4.7,6.4,9.1c-0.5-1-0.9-2.1-1.6-3
		C135.6,119.4,130.3,120.2,124.9,120.8z"/>
	<path d="M125.9,122.5c1.9-2.6,4.9-1.1,7.3-0.4c2.6,0.9,5.3-2.4,7.7-0.4c0.2,0.4,0.6,1.2,0.8,1.6c-2.3,2.5-5.3,5.2-8.9,4.6
		C129.8,127.2,127.9,124.6,125.9,122.5z"/>
</g>
</svg>
