<?xml version="1.0" encoding="utf-8"?>
<!-- Generator: Adobe Illustrator 26.1.0, SVG Export Plug-In . SVG Version: 6.00 Build 0)  -->
<svg version="1.1" id="Layer_1" xmlns="http://www.w3.org/2000/svg" xmlns:xlink="http://www.w3.org/1999/xlink" x="0px" y="0px"
	 viewBox="0 0 305.4 272.4" style="enable-background:new 0 0 305.4 272.4;" xml:space="preserve">
<g id="_x23_000000ff">
	<path d="M183.8,58.9c6.9-3.3,14.2-6.4,21.9-6.2c9.9,0.1,19,7.1,22.8,16.1c0.5,1.2,1,2.4,1.5,3.7c4.8,14.3,5.6,29.6,6.9,44.6
		c9.6,3.1,18.5,9.2,23.4,18.2c4.1,7.7,3.5,17,0.7,25.1c-3.1,8.1-8.3,15.2-14.7,21c-9.2,9.1-20.9,15.2-32.7,20.2
		c-1.2,0.5-2.5,1-3.7,1.5c-9.6,3.3-19.3,6.6-29.2,8.7c-2,0.4-3.9,0.8-5.9,1.2c-1.6,0.3-3.3,0.5-4.9,1c-19.6,3.1-39.3,6-59.2,5.8
		c-15.1,0.1-30.5-1.3-44.9-6.3c-10.5-3.6-20.5-11.5-23.1-22.8c-2.1-10.6,0.8-21.6,6.2-30.8c9.1-16,24.4-27.3,40.3-36.1
		c0.2-1,0.4-2,0.6-3c1.4-13.3,4-26.7,8.6-39.3c3-8.7,10.7-14.7,18.8-18.5c14.6-6.4,31.1-7.1,46.6-4.5c1.6,0.4,3.3,0.7,5,1
		c1.6,0.4,3.2,0.8,4.9,1.2c1.4,0.4,2.8,0.9,4.2,1.4C179.8,61,181.8,60,183.8,58.9 M175.8,71.9c-7.7,4.2-15.6,8.2-24,11.1
		c-2,0.6-4,1.2-6,1.9c-8.9,2.2-18.2,4.4-27.4,3.1c-3.6-0.7-3.5-6.7,0.3-6.9c15,0.8,29.5-4.2,43-10.2c2.5-1.2,4.9-2.4,7.5-3.5
		c-17.8-4.9-38-4.3-54.3,5.2c-9.3,5.3-11.9,16.6-14.1,26.2c-1.4,6.2-2.2,12.5-3.2,18.7c-1,8.2-1.9,16.4-2.6,24.6
		c2.5,0.7,5,1.2,7.5,1.7c16.3,2.6,32.8,2.8,49.2,1c7.6-1.3,15.3-2.3,22.9-4.2c10.6-2.5,20.8-6.2,31-10.1c8.3-3.1,15.8-7.7,23.6-11.7
		c-0.1-4.3,0.2-8.7-0.8-12.9c-0.2-3-0.2-6.1-0.9-9.1c-0.5-6.1-1.6-12.1-3.2-17.9c-2.2-6.9-5.5-14.3-12.4-17.5
		c-3.9-1.3-8.2-1.6-12.2-0.5C191,62.5,183.5,67.5,175.8,71.9 M237.3,124.8c-0.1,5.9,0.7,11.9,0,17.7c-2,5.7-7.4,9.3-12.5,12.1
		c-8.6,4.7-17.7,8.3-27,11.1c-0.5,0.1-1.7,0.4-2.2,0.5c-22.9,7.1-46.9,10.2-70.9,9.9c-10.5,0-21.3-0.8-31.3-4.5
		c-2.5-1.1-5.5-2-7-4.4c-0.3-3.3-0.1-6.6,0-9.9c0.9-4.9,0.5-10,1-15c0.8-3.2,0.7-6.5,0.8-9.8c-15.3,9.3-30.4,21.5-36.7,38.9
		c-0.3,1-0.6,2.1-0.9,3.1c-0.9,4.5-1.8,9.2-0.6,13.8c1.2,7.4,7.2,12.9,13.7,15.9c9.1,4.3,19.1,6.6,29.1,7.1
		c11.9,1.4,24,0.8,35.9,0.2c19.3-1.4,38.4-4.8,57.2-9c2.6-0.7,5.1-1.5,7.7-2.2c9.7-2.8,19-6.6,28-11.1c12.4-6.4,24.3-15.3,30.9-27.9
		c2.8-6.2,4.5-13.4,2.5-20.1C252.2,133.2,244.8,128.1,237.3,124.8 M200.7,140.4c0.1,5.5-0.2,11.1,0.1,16.6c1.6-0.4,3.2-1,4.8-1.7
		c1.7-0.6,3.4-1.2,5-1.9c7-3.1,14.6-6.3,19.5-12.4c-0.1-4.7-0.1-9.4-0.2-14.1C220.4,131.7,210.8,136.7,200.7,140.4 M178.5,147.1
		c0,5.4,0,10.9,0,16.3c5-1.1,9.9-2.5,14.7-4c0-5.5,0-11,0-16.6C188.3,144.2,183.4,145.7,178.5,147.1 M94.5,149.7
		c-0.3,4.8-0.6,9.5-0.7,14.3c1.6,0.6,3.2,1.2,4.8,1.8c1.3,0.3,2.7,0.6,4,0.9c18.9,3.8,38.3,2,57.2,0c2.5-0.9,5.3-0.5,7.8-1.4
		c0.9-0.1,2.6-0.4,3.5-0.5c0-5.4,0-10.7,0-16.1c-13.9,3-28.2,4.7-42.4,4.4c-5.3-0.1-10.7,0.2-15.9-0.8
		C106.6,152.2,100.6,150.8,94.5,149.7z"/>
</g>
</svg>
